<svg id="Capa_1" data-name="Capa 1" xmlns="http://www.w3.org/2000/svg" viewBox="0 0 507.58 62.42"><defs><style>.cls-1{fill:#1d1d1b;}</style></defs><title>Logo_IPS_Negro</title><path class="cls-1" d="M66.88,49.67c-.37.63-.77,1.26-1.19,1.86l3.65,5.3-4.59,4.73L59.62,57.9c-.62.47-1.27.92-1.93,1.34l1,6.15L52.91,68l-3.38-5.3c-.83.21-1.67.38-2.54.51v6.21H38.86V63.25c-.87-.13-1.71-.3-2.54-.51L32.94,68l-5.76-2.65,1-6.15c-.66-.42-1.31-.87-1.93-1.34L21.1,61.56l-4.59-4.73,3.65-5.3c-.42-.6-.82-1.23-1.19-1.86L13.23,51l-2.88-6.4,5.47-2.91c-.16-.7-.29-1.4-.39-2.12L8.79,38.08V35.32h0V32.58l6.63-1.45a21.61,21.61,0,0,1,.4-2.13l-5.48-2.91,2.89-6.4L19,21c.37-.63.77-1.26,1.19-1.86l-3.65-5.3L21.11,9.1l3.21,2.29V25.06a21.63,21.63,0,0,0-2.57,10.27h0a21.16,21.16,0,0,0,42,4.25h6.72q-.17,1.05-.39,2.07l5.47,2.91L72.62,51Z" transform="translate(-8.79 -8.78)"/><path class="cls-1" d="M26.77,37V9.11h6.66V37Z" transform="translate(-8.79 -8.78)"/><path class="cls-1" d="M45.77,27.76H44.05V37H37.4V9.11H46c6.54,0,10.55,3,10.55,9.1C56.59,24.52,52.27,27.76,45.77,27.76Zm-.12-13.43H44v8.21h1.55c3,0,4.6-1.34,4.6-4.21C50.13,15.66,48.61,14.33,45.65,14.33Z" transform="translate(-8.79 -8.78)"/><path class="cls-1" d="M66.94,37.34a21.42,21.42,0,0,1-9.38-2.1l1-5.91a18.5,18.5,0,0,0,8.53,2.59c1.91,0,3.23-.85,3.23-2.51s-.78-2.3-4.55-3.8C60.36,23.47,58,21.65,58,17c0-5.38,4-8.26,9.19-8.26a16.54,16.54,0,0,1,8.09,1.86l-1,5.83a14.25,14.25,0,0,0-7-2.27c-2,0-3,.89-3,2.19s.74,2.1,4.08,3.44c5.84,2.22,8.18,4.33,8.18,8.78C76.56,34.67,72.28,37.34,66.94,37.34Z" transform="translate(-8.79 -8.78)"/><path class="cls-1" d="M91.54,37V12.49h5.58V37Z" transform="translate(-8.79 -8.78)"/><path class="cls-1" d="M112.09,37l-5.68-14.93h-.11L106.44,37h-5V12.49h6.09l5.65,15.14h.1l-.1-15.14H118V37Z" transform="translate(-8.79 -8.78)"/><path class="cls-1" d="M130.1,17.21V37h-5.44V17.21h-4.5V12.49H134.6v4.72Z" transform="translate(-8.79 -8.78)"/><path class="cls-1" d="M136.75,37V12.49H148.6v4.89h-6.55v4.81h6v4.58h-6V32h7v5Z" transform="translate(-8.79 -8.78)"/><path class="cls-1" d="M162.51,37l-3.28-9.77H157.6V37h-5.33V12.49h7.85a7.76,7.76,0,0,1,5.53,1.86,7.24,7.24,0,0,1,2,5.52,8.67,8.67,0,0,1-.32,2.43,6.29,6.29,0,0,1-.81,1.83,4.87,4.87,0,0,1-1.12,1.25,4.18,4.18,0,0,1-1.21.69l4.18,11Zm-.33-16.84a3.85,3.85,0,0,0-.26-1.52,2.55,2.55,0,0,0-.68-.93,2.13,2.13,0,0,0-.92-.47,4.17,4.17,0,0,0-1-.12H157.6v6.2h1.63a3.08,3.08,0,0,0,2.06-.75A3,3,0,0,0,162.18,20.18Z" transform="translate(-8.79 -8.78)"/><path class="cls-1" d="M181.61,37l-5.68-14.93h-.11L176,37h-5V12.49h6.1l5.64,15.14h.11l-.11-15.14h4.78V37Z" transform="translate(-8.79 -8.78)"/><path class="cls-1" d="M202.78,37l-1-4.47h-5.51l-1,4.47h-5.54l5.95-24.53h7L208.56,37ZM199.1,17.83H199l-2.07,10.43h4.19Z" transform="translate(-8.79 -8.78)"/><path class="cls-1" d="M217.81,17.21V37h-5.44V17.21h-4.5V12.49h14.44v4.72Z" transform="translate(-8.79 -8.78)"/><path class="cls-1" d="M224.46,37V12.49H230V37Z" transform="translate(-8.79 -8.78)"/><path class="cls-1" d="M252.24,24.69a20.13,20.13,0,0,1-.66,5.32,12.8,12.8,0,0,1-1.87,4.1,8.54,8.54,0,0,1-3,2.63,8.69,8.69,0,0,1-7.86,0,8.45,8.45,0,0,1-3-2.63,12.59,12.59,0,0,1-1.87-4.1,20.13,20.13,0,0,1-.66-5.32,20.11,20.11,0,0,1,.64-5.28,12.35,12.35,0,0,1,1.85-4.06,8.64,8.64,0,0,1,3-2.6,9,9,0,0,1,7.9,0,8.55,8.55,0,0,1,3,2.6,12.58,12.58,0,0,1,1.87,4.06A19.67,19.67,0,0,1,252.24,24.69Zm-5.68,0a17.14,17.14,0,0,0-.24-3,9.56,9.56,0,0,0-.71-2.38,4.38,4.38,0,0,0-1.16-1.57,2.49,2.49,0,0,0-1.63-.57,2.58,2.58,0,0,0-1.65.57A4.28,4.28,0,0,0,240,19.35a8.8,8.8,0,0,0-.7,2.38,18.28,18.28,0,0,0-.22,3,18.71,18.71,0,0,0,.22,3,8.87,8.87,0,0,0,.7,2.39,4.45,4.45,0,0,0,1.17,1.59,2.55,2.55,0,0,0,1.65.59,2.46,2.46,0,0,0,1.63-.59,4.55,4.55,0,0,0,1.16-1.59,9.65,9.65,0,0,0,.71-2.39A17.55,17.55,0,0,0,246.56,24.69Z" transform="translate(-8.79 -8.78)"/><path class="cls-1" d="M266.2,37l-5.68-14.93h-.1L260.56,37h-5V12.49h6.1l5.65,15.14h.1l-.1-15.14h4.78V37Z" transform="translate(-8.79 -8.78)"/><path class="cls-1" d="M287.37,37l-1-4.47h-5.5l-1,4.47h-5.54l6-24.53h7L293.15,37ZM283.7,17.83h-.14l-2.08,10.43h4.19Z" transform="translate(-8.79 -8.78)"/><path class="cls-1" d="M295.3,37V12.49h5.61v19.4h6.55V37Z" transform="translate(-8.79 -8.78)"/><path class="cls-1" d="M331.19,20.18a9,9,0,0,1-.63,3.54,6.75,6.75,0,0,1-4,3.9,8,8,0,0,1-2.67.46h-2.39V37h-5.44V12.49h7.62a9.4,9.4,0,0,1,2.65.39,6.72,6.72,0,0,1,2.43,1.26,6.46,6.46,0,0,1,1.76,2.37A8.91,8.91,0,0,1,331.19,20.18Zm-5.2.11a3.1,3.1,0,0,0-.79-2.39,2.77,2.77,0,0,0-1.94-.73h-1.77v6.41h1.77a2.56,2.56,0,0,0,1.94-.85A3.43,3.43,0,0,0,326,20.29Z" transform="translate(-8.79 -8.78)"/><path class="cls-1" d="M343.56,37l-1-4.47H337L336,37H330.5l5.95-24.53h7L349.34,37Zm-3.68-19.19h-.14l-2.07,10.43h4.19Z" transform="translate(-8.79 -8.78)"/><path class="cls-1" d="M361.72,37l-3.28-9.77h-1.62V37h-5.33V12.49h7.84a7.72,7.72,0,0,1,5.53,1.86,7.2,7.2,0,0,1,2,5.52,8.68,8.68,0,0,1-.31,2.43,6.57,6.57,0,0,1-.81,1.83,5.07,5.07,0,0,1-1.12,1.25,4.32,4.32,0,0,1-1.21.69l4.18,11Zm-.33-16.84a3.86,3.86,0,0,0-.25-1.52,2.55,2.55,0,0,0-.68-.93,2.13,2.13,0,0,0-.92-.47,4.19,4.19,0,0,0-1-.12h-1.73v6.2h1.63a3.08,3.08,0,0,0,2.06-.75A3,3,0,0,0,361.39,20.18Z" transform="translate(-8.79 -8.78)"/><path class="cls-1" d="M377.75,17.21V37h-5.44V17.21H367.8V12.49h14.45v4.72Z" transform="translate(-8.79 -8.78)"/><path class="cls-1" d="M394.55,18.35a4.42,4.42,0,0,0-1.46-1.13,4,4,0,0,0-1.73-.4,2.67,2.67,0,0,0-1.68.59,2.35,2.35,0,0,0-.75,1.95,2.19,2.19,0,0,0,.77,1.78A11.72,11.72,0,0,0,392,22.55c.56.28,1.14.61,1.76,1a8.28,8.28,0,0,1,1.69,1.4,7,7,0,0,1,1.27,2,6.8,6.8,0,0,1,.51,2.76,9,9,0,0,1-.63,3.49,7.08,7.08,0,0,1-1.69,2.49,7.21,7.21,0,0,1-2.46,1.5,8.47,8.47,0,0,1-2.88.5,9.62,9.62,0,0,1-4-.83,10,10,0,0,1-2.93-1.94l2.84-4.16a6.24,6.24,0,0,0,1.84,1.33,4.72,4.72,0,0,0,2.11.51,2.39,2.39,0,0,0,1.7-.66,2.71,2.71,0,0,0-.14-3.76,12.36,12.36,0,0,0-2.43-1.51,14.82,14.82,0,0,1-1.88-1.07A7,7,0,0,1,385,24.17,6.27,6.27,0,0,1,384,22.23a8.25,8.25,0,0,1-.38-2.63,8.38,8.38,0,0,1,.67-3.52A7.09,7.09,0,0,1,386,13.67a7.35,7.35,0,0,1,2.43-1.38,8.33,8.33,0,0,1,2.68-.45,9.32,9.32,0,0,1,3.6.65,7.56,7.56,0,0,1,2.67,1.79Z" transform="translate(-8.79 -8.78)"/><path class="cls-1" d="M417.44,18.35A4.39,4.39,0,0,0,416,17.22a4.06,4.06,0,0,0-1.73-.4,2.63,2.63,0,0,0-1.68.59,2.35,2.35,0,0,0-.75,1.95,2.21,2.21,0,0,0,.76,1.78,12.18,12.18,0,0,0,2.26,1.41c.55.28,1.14.61,1.76,1a8.28,8.28,0,0,1,1.69,1.4,7.2,7.2,0,0,1,1.27,2,6.8,6.8,0,0,1,.51,2.76,9,9,0,0,1-.63,3.49,7.08,7.08,0,0,1-1.69,2.49,7.21,7.21,0,0,1-2.46,1.5,8.55,8.55,0,0,1-2.88.5,9.7,9.7,0,0,1-4-.83,10,10,0,0,1-2.92-1.94l2.84-4.16a6.32,6.32,0,0,0,1.83,1.33,4.79,4.79,0,0,0,2.12.51,2.35,2.35,0,0,0,1.69-.66,2.7,2.7,0,0,0-.13-3.76,12.67,12.67,0,0,0-2.43-1.51,15.69,15.69,0,0,1-1.89-1.07,7,7,0,0,1-1.56-1.42,6.25,6.25,0,0,1-1.05-1.94,8,8,0,0,1-.38-2.63,8.38,8.38,0,0,1,.67-3.52,7,7,0,0,1,1.77-2.41,7.31,7.31,0,0,1,2.42-1.38,8.39,8.39,0,0,1,2.69-.45,9.32,9.32,0,0,1,3.6.65,7.65,7.65,0,0,1,2.67,1.79Z" transform="translate(-8.79 -8.78)"/><path class="cls-1" d="M423.26,37V12.49h11.85v4.89h-6.55v4.81h6v4.58h-6V32h7v5Z" transform="translate(-8.79 -8.78)"/><path class="cls-1" d="M449,37l-3.28-9.77h-1.62V37h-5.34V12.49h7.85a7.76,7.76,0,0,1,5.53,1.86,7.24,7.24,0,0,1,2,5.52,9.07,9.07,0,0,1-.31,2.43,6.87,6.87,0,0,1-.81,1.83,5.1,5.1,0,0,1-1.13,1.25,4.14,4.14,0,0,1-1.2.69l4.18,11Zm-.33-16.84a3.85,3.85,0,0,0-.26-1.52,2.44,2.44,0,0,0-.68-.93,2.09,2.09,0,0,0-.91-.47,4.32,4.32,0,0,0-1-.12h-1.73v6.2h1.62a3.1,3.1,0,0,0,2.07-.75A3,3,0,0,0,448.69,20.18Z" transform="translate(-8.79 -8.78)"/><path class="cls-1" d="M468.26,37h-7l-5.92-24.53h6.27l3.32,18H465l3.29-18h6Z" transform="translate(-8.79 -8.78)"/><path class="cls-1" d="M476.44,37V12.49H482V37Z" transform="translate(-8.79 -8.78)"/><path class="cls-1" d="M499.06,36.73a8.23,8.23,0,0,1-4.16,1,8.1,8.1,0,0,1-3.9-1,9.15,9.15,0,0,1-3-2.67A12.92,12.92,0,0,1,486.07,30a18.24,18.24,0,0,1-.7-5.21,18.62,18.62,0,0,1,.7-5.27A12.82,12.82,0,0,1,488,15.4a9,9,0,0,1,3-2.63,8.2,8.2,0,0,1,3.9-.93,8.55,8.55,0,0,1,4.1.88,8,8,0,0,1,2.65,2.2l-3,4a5,5,0,0,0-1.4-1.32,3.67,3.67,0,0,0-2-.48,3.15,3.15,0,0,0-1.92.59A4.88,4.88,0,0,0,492,19.34a8.11,8.11,0,0,0-.85,2.42,15.13,15.13,0,0,0-.28,3,14.86,14.86,0,0,0,.28,3,8.31,8.31,0,0,0,.85,2.42,4.69,4.69,0,0,0,1.4,1.63,3.28,3.28,0,0,0,1.94.59,3.43,3.43,0,0,0,1.94-.56,4.58,4.58,0,0,0,1.32-1.31l3.08,3.84A8.4,8.4,0,0,1,499.06,36.73Z" transform="translate(-8.79 -8.78)"/><path class="cls-1" d="M504.11,37V12.49H516v4.89h-6.55v4.81h6v4.58h-6V32h7v5Z" transform="translate(-8.79 -8.78)"/><path class="cls-1" d="M98.79,65.32l-1-4.06h-5l-1,4.06H89.56L93.92,48h2.91l4.26,17.34ZM95.39,50h-.1l-2.2,9.48h4.43Z" transform="translate(-8.79 -8.78)"/><path class="cls-1" d="M107.36,53.05v7.84c0,.34,0,.69,0,1a3.28,3.28,0,0,0,.24,1,1.65,1.65,0,0,0,.52.71,1.47,1.47,0,0,0,.93.27,1.71,1.71,0,0,0,1-.28,2.58,2.58,0,0,0,.76-.78,4.37,4.37,0,0,0,.49-1.2,6.73,6.73,0,0,0,.17-1.54V53.05h2.08v9.19c0,.49,0,1,0,1.57s0,1.06.07,1.51h-2c-.05-.41-.09-.81-.11-1.22s0-.71,0-.91h0A4.12,4.12,0,0,1,110.34,65a2.77,2.77,0,0,1-2,.74,2.87,2.87,0,0,1-1.61-.41,2.78,2.78,0,0,1-1-1.09,5.26,5.26,0,0,1-.45-1.56,13.34,13.34,0,0,1-.12-1.79V53.05Z" transform="translate(-8.79 -8.78)"/><path class="cls-1" d="M123.14,65.54a3.83,3.83,0,0,1-.88.1,2.23,2.23,0,0,1-2-.91,4.51,4.51,0,0,1-.6-2.52V54.72h-1.57V53h1.54V49.74h2V53h2.18v1.69h-2.18v7.06a2.91,2.91,0,0,0,.32,1.55,1.08,1.08,0,0,0,1,.47,1.85,1.85,0,0,0,.46,0l.42-.12,0,1.67A2.55,2.55,0,0,1,123.14,65.54Z" transform="translate(-8.79 -8.78)"/><path class="cls-1" d="M136.46,59.2a11,11,0,0,1-.3,2.67,6.68,6.68,0,0,1-.89,2.06,4.22,4.22,0,0,1-1.4,1.33,3.74,3.74,0,0,1-1.89.48,3.63,3.63,0,0,1-1.86-.48,4.16,4.16,0,0,1-1.41-1.33,6.67,6.67,0,0,1-.88-2.06,10.52,10.52,0,0,1-.31-2.67,10.88,10.88,0,0,1,.31-2.7,6.58,6.58,0,0,1,.87-2.08,4.1,4.1,0,0,1,1.39-1.33,4,4,0,0,1,3.78,0,4.22,4.22,0,0,1,1.4,1.33,6.6,6.6,0,0,1,.89,2.08A11.39,11.39,0,0,1,136.46,59.2Zm-2.15,0a12.16,12.16,0,0,0-.14-1.87,5.43,5.43,0,0,0-.43-1.5,2.8,2.8,0,0,0-.73-1,1.58,1.58,0,0,0-1-.36,1.6,1.6,0,0,0-1,.36,2.79,2.79,0,0,0-.72,1,5.81,5.81,0,0,0-.42,1.5,12.2,12.2,0,0,0-.13,1.87,11.94,11.94,0,0,0,.13,1.85,5.84,5.84,0,0,0,.42,1.49,2.79,2.79,0,0,0,.72,1,1.68,1.68,0,0,0,2.08,0,2.69,2.69,0,0,0,.73-1,6.29,6.29,0,0,0,.41-1.49A11.89,11.89,0,0,0,134.31,59.19Z" transform="translate(-8.79 -8.78)"/><path class="cls-1" d="M143.66,53v1.91h.05a3.87,3.87,0,0,1,.95-1.67,2.57,2.57,0,0,1,1.92-.66,2.9,2.9,0,0,1,1.66.5,4.1,4.1,0,0,1,1.24,1.39,6.94,6.94,0,0,1,.76,2.09,12.82,12.82,0,0,1,.26,2.63,12.6,12.6,0,0,1-.25,2.62,6.74,6.74,0,0,1-.74,2.06,4.15,4.15,0,0,1-1.24,1.35,2.94,2.94,0,0,1-1.69.49,2.68,2.68,0,0,1-1.81-.63,3.12,3.12,0,0,1-1-1.58h0V71.2h-2.08V53Zm0,6.13a11,11,0,0,0,.15,1.87,5.77,5.77,0,0,0,.45,1.5,3.1,3.1,0,0,0,.75,1,1.67,1.67,0,0,0,2.07,0,2.77,2.77,0,0,0,.71-1,5.81,5.81,0,0,0,.42-1.5,12.2,12.2,0,0,0,.13-1.87,12,12,0,0,0-.13-1.84,5.81,5.81,0,0,0-.42-1.5,2.77,2.77,0,0,0-.71-1,1.57,1.57,0,0,0-1-.36,1.62,1.62,0,0,0-1,.36,2.84,2.84,0,0,0-.75,1,6.2,6.2,0,0,0-.44,1.5A10.8,10.8,0,0,0,143.66,59.16Z" transform="translate(-8.79 -8.78)"/><path class="cls-1" d="M161,65.32a10.74,10.74,0,0,1-.15-1.12c0-.38-.05-.68-.05-.91h0a3.31,3.31,0,0,1-1,1.73,2.79,2.79,0,0,1-1.92.62,2.87,2.87,0,0,1-1-.2,2.62,2.62,0,0,1-1-.63,3.52,3.52,0,0,1-.71-1.13,5.19,5.19,0,0,1,.2-3.86,3.65,3.65,0,0,1,1.2-1.32,4.43,4.43,0,0,1,1.6-.65,9.22,9.22,0,0,1,1.69-.17h.81v-.54a3.25,3.25,0,0,0-.55-2.09,1.82,1.82,0,0,0-1.48-.65,2.48,2.48,0,0,0-1.28.34,3.33,3.33,0,0,0-1,.91l-1.06-1.3a4.07,4.07,0,0,1,1.6-1.29,4.57,4.57,0,0,1,1.93-.45,4.13,4.13,0,0,1,1.78.34,2.84,2.84,0,0,1,1.16,1,4.55,4.55,0,0,1,.63,1.63,12,12,0,0,1,.18,2.19v5c0,.42,0,.89.05,1.38a11.45,11.45,0,0,0,.12,1.19Zm-.32-6h-.91a6.5,6.5,0,0,0-1.09.1,2.52,2.52,0,0,0-.94.38,2.13,2.13,0,0,0-.68.77,2.7,2.7,0,0,0-.25,1.25,2.34,2.34,0,0,0,.49,1.65,1.49,1.49,0,0,0,1.12.53,1.57,1.57,0,0,0,1.07-.38,2.72,2.72,0,0,0,.7-1,5.15,5.15,0,0,0,.38-1.28,9.07,9.07,0,0,0,.11-1.34Z" transform="translate(-8.79 -8.78)"/><path class="cls-1" d="M171.27,53.32a2.26,2.26,0,0,1,1.64-.71l.29,0-.1,2.18-.19,0h-.22a1.54,1.54,0,0,0-1,.38,3,3,0,0,0-.76,1,5.6,5.6,0,0,0-.47,1.38,8.3,8.3,0,0,0-.16,1.58v6.22h-2.1V56.14c0-.49,0-1,0-1.58s0-1.08-.07-1.53h2c.05.4.09.83.11,1.27s0,.87,0,1.27h.05A4.3,4.3,0,0,1,171.27,53.32Z" transform="translate(-8.79 -8.78)"/><path class="cls-1" d="M181,65.54a3.77,3.77,0,0,1-.88.1,2.23,2.23,0,0,1-2-.91,4.51,4.51,0,0,1-.6-2.52V54.72H176V53h1.54V49.74h2V53h2.18v1.69h-2.18v7.06a2.93,2.93,0,0,0,.31,1.55,1.1,1.1,0,0,0,1,.47,1.85,1.85,0,0,0,.46,0l.42-.12.05,1.67A2.55,2.55,0,0,1,181,65.54Z" transform="translate(-8.79 -8.78)"/><path class="cls-1" d="M187.53,59.71a7.76,7.76,0,0,0,.16,1.65,4.72,4.72,0,0,0,.47,1.33,2.41,2.41,0,0,0,.77.89,1.87,1.87,0,0,0,1.07.32,1.76,1.76,0,0,0,1.33-.51,4,4,0,0,0,.78-1.23l1.57.91A4.9,4.9,0,0,1,192.27,65a3.57,3.57,0,0,1-2.34.75A3.83,3.83,0,0,1,186.62,64a8.32,8.32,0,0,1-1.2-4.81,10.59,10.59,0,0,1,.32-2.68,7,7,0,0,1,.91-2.09,4.31,4.31,0,0,1,1.42-1.34,3.9,3.9,0,0,1,3.75,0,3.79,3.79,0,0,1,1.28,1.3,5.75,5.75,0,0,1,.73,1.93,12.86,12.86,0,0,1,.22,2.39v1ZM191.94,58a5.8,5.8,0,0,0-.5-2.59,1.67,1.67,0,0,0-1.58-1,1.57,1.57,0,0,0-1.07.37,3.12,3.12,0,0,0-.7.93,4.47,4.47,0,0,0-.39,1.17,5.84,5.84,0,0,0-.12,1.1Z" transform="translate(-8.79 -8.78)"/><path class="cls-1" d="M204,55.35a2.63,2.63,0,0,0-.82-.77,2.25,2.25,0,0,0-1.18-.3,1.51,1.51,0,0,0-1.18.5,1.92,1.92,0,0,0-.46,1.36,1.52,1.52,0,0,0,.47,1.25,5.54,5.54,0,0,0,1.46.76,9.27,9.27,0,0,1,1,.47,3.65,3.65,0,0,1,.9.73,3.33,3.33,0,0,1,.65,1,3.62,3.62,0,0,1,.25,1.43,4.87,4.87,0,0,1-.28,1.69,3.32,3.32,0,0,1-2,2,4.2,4.2,0,0,1-1.49.26,4.46,4.46,0,0,1-2-.45,4.66,4.66,0,0,1-1.52-1.22l1.23-1.34a4.18,4.18,0,0,0,1,.89,2.45,2.45,0,0,0,1.39.38,1.51,1.51,0,0,0,1.24-.56,2.3,2.3,0,0,0,.45-1.47,2,2,0,0,0-.17-.89,1.89,1.89,0,0,0-.46-.62,2.88,2.88,0,0,0-.7-.44l-.87-.36a6.81,6.81,0,0,1-.92-.41,3.18,3.18,0,0,1-.82-.65,3.09,3.09,0,0,1-.59-1,4.09,4.09,0,0,1-.22-1.41,3.85,3.85,0,0,1,.28-1.47,3.64,3.64,0,0,1,.77-1.14,3.41,3.41,0,0,1,1.16-.73,3.9,3.9,0,0,1,1.42-.26,4.39,4.39,0,0,1,1.89.38,3.79,3.79,0,0,1,1.32,1Z" transform="translate(-8.79 -8.78)"/><path class="cls-1" d="M220.77,67.55a13.36,13.36,0,0,1-.5,1.51,4.44,4.44,0,0,1-.69,1.15,2.68,2.68,0,0,1-1,.73,3.14,3.14,0,0,1-1.32.26,5.32,5.32,0,0,1-.81-.06,4.37,4.37,0,0,1-.63-.14l.26-1.88a2.93,2.93,0,0,0,1,.17,1.3,1.3,0,0,0,1.07-.44,3.06,3.06,0,0,0,.55-1.23l.47-1.93L215.55,53h2.21l2.42,9.84h0l2.2-9.84h2.13Z" transform="translate(-8.79 -8.78)"/><path class="cls-1" d="M239.06,53.32a2.28,2.28,0,0,1,1.65-.71l.29,0-.1,2.18-.19,0h-.23a1.56,1.56,0,0,0-1,.38,3.1,3.1,0,0,0-.76,1,6,6,0,0,0-.46,1.38,7.56,7.56,0,0,0-.16,1.58v6.22H236V56.14c0-.49,0-1,0-1.58s0-1.08-.07-1.53h2c0,.4.09.83.11,1.27s0,.87,0,1.27h0A4.37,4.37,0,0,1,239.06,53.32Z" transform="translate(-8.79 -8.78)"/><path class="cls-1" d="M246.44,59.71a7.76,7.76,0,0,0,.16,1.65,4.72,4.72,0,0,0,.46,1.33,2.5,2.5,0,0,0,.77.89,1.88,1.88,0,0,0,1.08.32,1.73,1.73,0,0,0,1.32-.51,4,4,0,0,0,.79-1.23l1.56.91a4.79,4.79,0,0,1-1.4,1.92,3.61,3.61,0,0,1-2.34.75A3.82,3.82,0,0,1,245.53,64a8.32,8.32,0,0,1-1.2-4.81,10.59,10.59,0,0,1,.32-2.68,6.55,6.55,0,0,1,.91-2.09A4.31,4.31,0,0,1,247,53.09a3.88,3.88,0,0,1,3.74,0,3.82,3.82,0,0,1,1.29,1.3,6,6,0,0,1,.72,1.93,12.06,12.06,0,0,1,.22,2.39v1ZM250.85,58a5.65,5.65,0,0,0-.51-2.59,1.66,1.66,0,0,0-1.58-1,1.54,1.54,0,0,0-1.06.37,3,3,0,0,0-.7.93,4.47,4.47,0,0,0-.39,1.17,5.84,5.84,0,0,0-.12,1.1Z" transform="translate(-8.79 -8.78)"/><path class="cls-1" d="M260.08,53v1.91h.05a3.86,3.86,0,0,1,.94-1.67,2.59,2.59,0,0,1,1.92-.66,2.93,2.93,0,0,1,1.67.5,4.2,4.2,0,0,1,1.24,1.39,7.53,7.53,0,0,1,.76,2.09,12.84,12.84,0,0,1,.25,2.63,13.35,13.35,0,0,1-.24,2.62,6.74,6.74,0,0,1-.75,2.06,4,4,0,0,1-1.24,1.35,2.94,2.94,0,0,1-1.69.49,2.7,2.7,0,0,1-1.81-.63,3.1,3.1,0,0,1-1-1.58h-.05V71.2h-2.08V53Zm0,6.13a11,11,0,0,0,.15,1.87,5.41,5.41,0,0,0,.45,1.5,2.84,2.84,0,0,0,.75,1,1.56,1.56,0,0,0,1,.36,1.59,1.59,0,0,0,1-.36,2.89,2.89,0,0,0,.71-1,6.25,6.25,0,0,0,.41-1.5,12.16,12.16,0,0,0,.14-1.87,12,12,0,0,0-.14-1.84,6.25,6.25,0,0,0-.41-1.5,2.89,2.89,0,0,0-.71-1,1.59,1.59,0,0,0-1-.36,1.65,1.65,0,0,0-1,.36,2.71,2.71,0,0,0-.74,1,5.42,5.42,0,0,0-.44,1.5A10.8,10.8,0,0,0,260.08,59.16Z" transform="translate(-8.79 -8.78)"/><path class="cls-1" d="M274.09,53.05v7.84c0,.34,0,.69.05,1a3.28,3.28,0,0,0,.23,1,1.67,1.67,0,0,0,.53.71,1.47,1.47,0,0,0,.93.27,1.7,1.7,0,0,0,.95-.28,2.47,2.47,0,0,0,.76-.78,3.83,3.83,0,0,0,.49-1.2,6.21,6.21,0,0,0,.17-1.54V53.05h2.09v9.19c0,.49,0,1,0,1.57s0,1.06.07,1.51h-2c0-.41-.08-.81-.11-1.22s0-.71,0-.91h-.05A4,4,0,0,1,277.07,65a2.77,2.77,0,0,1-1.95.74,2.9,2.9,0,0,1-1.62-.41,2.76,2.76,0,0,1-.94-1.09,5.26,5.26,0,0,1-.45-1.56,11.88,11.88,0,0,1-.13-1.79V53.05Z" transform="translate(-8.79 -8.78)"/><path class="cls-1" d="M287.61,59.71a7.76,7.76,0,0,0,.16,1.65,4.72,4.72,0,0,0,.46,1.33,2.52,2.52,0,0,0,.78.89,1.87,1.87,0,0,0,1.07.32,1.76,1.76,0,0,0,1.33-.51,4.17,4.17,0,0,0,.78-1.23l1.57.91A4.9,4.9,0,0,1,292.35,65a3.57,3.57,0,0,1-2.34.75A3.83,3.83,0,0,1,286.7,64a8.32,8.32,0,0,1-1.2-4.81,10.59,10.59,0,0,1,.32-2.68,6.78,6.78,0,0,1,.91-2.09,4.31,4.31,0,0,1,1.42-1.34,3.9,3.9,0,0,1,3.75,0,3.79,3.79,0,0,1,1.28,1.3,5.54,5.54,0,0,1,.72,1.93,12,12,0,0,1,.23,2.39v1ZM292,58a5.8,5.8,0,0,0-.5-2.59,1.67,1.67,0,0,0-1.58-1,1.57,1.57,0,0,0-1.07.37,3.12,3.12,0,0,0-.7.93,4.47,4.47,0,0,0-.39,1.17,5.84,5.84,0,0,0-.12,1.1Z" transform="translate(-8.79 -8.78)"/><path class="cls-1" d="M304.09,55.35a2.63,2.63,0,0,0-.82-.77,2.25,2.25,0,0,0-1.18-.3,1.51,1.51,0,0,0-1.18.5,1.92,1.92,0,0,0-.47,1.36,1.52,1.52,0,0,0,.48,1.25,5.54,5.54,0,0,0,1.46.76,9.27,9.27,0,0,1,1,.47,3.65,3.65,0,0,1,.9.73,3.33,3.33,0,0,1,.65,1,3.81,3.81,0,0,1,.25,1.43,4.64,4.64,0,0,1-.29,1.69,3.13,3.13,0,0,1-.78,1.22,3.26,3.26,0,0,1-1.19.75,4.2,4.2,0,0,1-1.49.26,4.43,4.43,0,0,1-2-.45,4.66,4.66,0,0,1-1.52-1.22l1.23-1.34a4.18,4.18,0,0,0,1,.89,2.45,2.45,0,0,0,1.39.38,1.52,1.52,0,0,0,1.24-.56,2.3,2.3,0,0,0,.45-1.47,2.17,2.17,0,0,0-.17-.89,1.89,1.89,0,0,0-.46-.62,2.88,2.88,0,0,0-.7-.44l-.87-.36a6.81,6.81,0,0,1-.92-.41,3.18,3.18,0,0,1-.82-.65,3.09,3.09,0,0,1-.59-1,3.87,3.87,0,0,1-.22-1.41,3.56,3.56,0,0,1,1.05-2.61,3.32,3.32,0,0,1,1.16-.73,3.9,3.9,0,0,1,1.42-.26A4.39,4.39,0,0,1,304,53a3.75,3.75,0,0,1,1.31,1Z" transform="translate(-8.79 -8.78)"/><path class="cls-1" d="M313.82,65.54a3.83,3.83,0,0,1-.88.1,2.23,2.23,0,0,1-2-.91,4.51,4.51,0,0,1-.6-2.52V54.72h-1.57V53h1.54V49.74h2V53h2.18v1.69h-2.18v7.06a2.91,2.91,0,0,0,.32,1.55,1.08,1.08,0,0,0,1,.47,1.9,1.9,0,0,0,.46,0l.42-.12,0,1.67A2.55,2.55,0,0,1,313.82,65.54Z" transform="translate(-8.79 -8.78)"/><path class="cls-1" d="M327.14,59.2a11,11,0,0,1-.3,2.67,6.68,6.68,0,0,1-.89,2.06,4.22,4.22,0,0,1-1.4,1.33,3.74,3.74,0,0,1-1.89.48,3.63,3.63,0,0,1-1.86-.48,4.16,4.16,0,0,1-1.41-1.33,6.67,6.67,0,0,1-.88-2.06,10.52,10.52,0,0,1-.31-2.67,10.88,10.88,0,0,1,.31-2.7,6.58,6.58,0,0,1,.87-2.08,4.1,4.1,0,0,1,1.39-1.33,4,4,0,0,1,3.78,0,4.22,4.22,0,0,1,1.4,1.33,6.6,6.6,0,0,1,.89,2.08A11.39,11.39,0,0,1,327.14,59.2Zm-2.15,0a12.16,12.16,0,0,0-.14-1.87,5.43,5.43,0,0,0-.43-1.5,2.8,2.8,0,0,0-.73-1,1.6,1.6,0,0,0-1-.36,1.58,1.58,0,0,0-1,.36,2.79,2.79,0,0,0-.72,1,5.81,5.81,0,0,0-.42,1.5,12.2,12.2,0,0,0-.13,1.87,11.94,11.94,0,0,0,.13,1.85,5.84,5.84,0,0,0,.42,1.49,2.79,2.79,0,0,0,.72,1,1.58,1.58,0,0,0,1,.36,1.59,1.59,0,0,0,1-.36,2.69,2.69,0,0,0,.73-1,6.29,6.29,0,0,0,.41-1.49A11.89,11.89,0,0,0,325,59.19Z" transform="translate(-8.79 -8.78)"/><path class="cls-1" d="M337.18,55.35a2.63,2.63,0,0,0-.82-.77,2.25,2.25,0,0,0-1.18-.3,1.51,1.51,0,0,0-1.18.5,1.92,1.92,0,0,0-.47,1.36,1.52,1.52,0,0,0,.48,1.25,5.54,5.54,0,0,0,1.46.76,9.27,9.27,0,0,1,1,.47,3.65,3.65,0,0,1,.9.73,3.33,3.33,0,0,1,.65,1,3.81,3.81,0,0,1,.25,1.43,4.64,4.64,0,0,1-.29,1.69,3.13,3.13,0,0,1-.78,1.22,3.26,3.26,0,0,1-1.19.75,4.2,4.2,0,0,1-1.49.26,4.43,4.43,0,0,1-2-.45A4.66,4.66,0,0,1,331,64.07l1.23-1.34a4.18,4.18,0,0,0,1,.89,2.45,2.45,0,0,0,1.39.38,1.52,1.52,0,0,0,1.24-.56A2.3,2.3,0,0,0,336.3,62a2.17,2.17,0,0,0-.17-.89,1.89,1.89,0,0,0-.46-.62A2.88,2.88,0,0,0,335,60l-.87-.36a6.81,6.81,0,0,1-.92-.41,3.18,3.18,0,0,1-.82-.65,3.09,3.09,0,0,1-.59-1,3.87,3.87,0,0,1-.22-1.41,3.56,3.56,0,0,1,1.05-2.61,3.32,3.32,0,0,1,1.16-.73,3.9,3.9,0,0,1,1.42-.26,4.39,4.39,0,0,1,1.89.38,3.75,3.75,0,0,1,1.31,1Z" transform="translate(-8.79 -8.78)"/><path class="cls-1" d="M352.52,49.38a1.38,1.38,0,0,1-.38,1,1.25,1.25,0,0,1-.92.39,1.21,1.21,0,0,1-.93-.39,1.37,1.37,0,0,1-.37-1,1.41,1.41,0,0,1,.37-1,1.22,1.22,0,0,1,.93-.4,1.25,1.25,0,0,1,.93.4A1.45,1.45,0,0,1,352.52,49.38Zm-2.35,15.94V53h2.08V65.32Z" transform="translate(-8.79 -8.78)"/><path class="cls-1" d="M364.37,65.32V57.47a9.51,9.51,0,0,0-.05-1.06,3.28,3.28,0,0,0-.23-1,1.67,1.67,0,0,0-.53-.71,1.47,1.47,0,0,0-.93-.27,1.7,1.7,0,0,0-.95.28,2.47,2.47,0,0,0-.76.78,4,4,0,0,0-.49,1.21,6.13,6.13,0,0,0-.17,1.53v7.07h-2.09V56.14c0-.49,0-1,0-1.58s0-1.08-.07-1.53h2c.05.4.09.81.11,1.22s0,.71,0,.91h.05a4,4,0,0,1,1.14-1.82,2.75,2.75,0,0,1,1.94-.73A2.83,2.83,0,0,1,365,53a2.68,2.68,0,0,1,.95,1.1,5.55,5.55,0,0,1,.46,1.57,13.09,13.09,0,0,1,.12,1.78v7.84Z" transform="translate(-8.79 -8.78)"/><path class="cls-1" d="M375.91,65.54a3.83,3.83,0,0,1-.88.1,2.21,2.21,0,0,1-2-.91,4.43,4.43,0,0,1-.61-2.52V54.72h-1.56V53h1.54V49.74h2V53h2.18v1.69h-2.18v7.06a2.91,2.91,0,0,0,.32,1.55,1.08,1.08,0,0,0,1,.47,1.9,1.9,0,0,0,.46,0l.42-.12.05,1.67A2.55,2.55,0,0,1,375.91,65.54Z" transform="translate(-8.79 -8.78)"/><path class="cls-1" d="M382.4,59.71a7.76,7.76,0,0,0,.16,1.65,4.72,4.72,0,0,0,.46,1.33,2.5,2.5,0,0,0,.77.89,1.88,1.88,0,0,0,1.08.32,1.73,1.73,0,0,0,1.32-.51,4,4,0,0,0,.79-1.23l1.57.91A4.9,4.9,0,0,1,387.14,65a3.57,3.57,0,0,1-2.34.75A3.82,3.82,0,0,1,381.49,64a8.32,8.32,0,0,1-1.2-4.81,10.59,10.59,0,0,1,.32-2.68,6.55,6.55,0,0,1,.91-2.09,4.31,4.31,0,0,1,1.42-1.34,3.88,3.88,0,0,1,3.74,0,3.73,3.73,0,0,1,1.29,1.3,5.74,5.74,0,0,1,.72,1.93,12.06,12.06,0,0,1,.22,2.39v1ZM386.81,58a5.65,5.65,0,0,0-.51-2.59,1.66,1.66,0,0,0-1.57-1,1.57,1.57,0,0,0-1.07.37,3,3,0,0,0-.7.93,4.47,4.47,0,0,0-.39,1.17,5.84,5.84,0,0,0-.12,1.1Z" transform="translate(-8.79 -8.78)"/><path class="cls-1" d="M397.17,53.32a2.26,2.26,0,0,1,1.64-.71l.29,0-.1,2.18-.19,0h-.22a1.54,1.54,0,0,0-1,.38,3,3,0,0,0-.76,1,5.6,5.6,0,0,0-.47,1.38,8.3,8.3,0,0,0-.16,1.58v6.22h-2.1V56.14c0-.49,0-1,0-1.58s0-1.08-.07-1.53h2c.05.4.09.83.11,1.27s0,.87,0,1.27h.05A4.3,4.3,0,0,1,397.17,53.32Z" transform="translate(-8.79 -8.78)"/><path class="cls-1" d="M409.51,65.32V57.47a9.51,9.51,0,0,0-.05-1.06,3.28,3.28,0,0,0-.23-1,1.67,1.67,0,0,0-.53-.71,1.47,1.47,0,0,0-.93-.27,1.7,1.7,0,0,0-.95.28,2.47,2.47,0,0,0-.76.78,4,4,0,0,0-.49,1.21,6.13,6.13,0,0,0-.17,1.53v7.07h-2.08V56.14c0-.49,0-1,0-1.58s0-1.08-.07-1.53h2c.05.4.09.81.11,1.22s0,.71,0,.91h0a4.15,4.15,0,0,1,1.14-1.82,2.75,2.75,0,0,1,1.94-.73,2.83,2.83,0,0,1,1.61.42,2.68,2.68,0,0,1,1,1.1,5.55,5.55,0,0,1,.46,1.57,13.09,13.09,0,0,1,.12,1.78v7.84Z" transform="translate(-8.79 -8.78)"/><path class="cls-1" d="M422.66,65.32c-.06-.37-.11-.75-.14-1.12a8.6,8.6,0,0,1,0-.91h-.05a3.31,3.31,0,0,1-1,1.73,2.79,2.79,0,0,1-1.92.62,2.87,2.87,0,0,1-1-.2,2.54,2.54,0,0,1-1-.63,3.52,3.52,0,0,1-.71-1.13,4.43,4.43,0,0,1-.28-1.69,4.5,4.5,0,0,1,.47-2.17,3.84,3.84,0,0,1,1.2-1.32,4.55,4.55,0,0,1,1.61-.65,9.22,9.22,0,0,1,1.69-.17h.81v-.54a3.25,3.25,0,0,0-.55-2.09,1.84,1.84,0,0,0-1.49-.65,2.47,2.47,0,0,0-1.27.34,3.21,3.21,0,0,0-1,.91l-1.06-1.3a4.07,4.07,0,0,1,1.6-1.29,4.57,4.57,0,0,1,1.93-.45,4.16,4.16,0,0,1,1.78.34,2.84,2.84,0,0,1,1.16,1,4.37,4.37,0,0,1,.62,1.63,11.09,11.09,0,0,1,.19,2.19v5c0,.42,0,.89.05,1.38a11.45,11.45,0,0,0,.12,1.19Zm-.31-6h-.91a6.4,6.4,0,0,0-1.09.1,2.45,2.45,0,0,0-.94.38,2.13,2.13,0,0,0-.68.77,2.7,2.7,0,0,0-.25,1.25,2.34,2.34,0,0,0,.49,1.65,1.49,1.49,0,0,0,1.12.53,1.57,1.57,0,0,0,1.07-.38,2.85,2.85,0,0,0,.7-1,5.15,5.15,0,0,0,.38-1.28,9.07,9.07,0,0,0,.11-1.34Z" transform="translate(-8.79 -8.78)"/><path class="cls-1" d="M433.56,65.74a3.79,3.79,0,0,1-1.93-.48,3.87,3.87,0,0,1-1.38-1.35,6.7,6.7,0,0,1-.84-2.07,12.87,12.87,0,0,1,0-5.34,6.47,6.47,0,0,1,.85-2.07,4.13,4.13,0,0,1,1.39-1.34,3.82,3.82,0,0,1,1.94-.48,3.73,3.73,0,0,1,1.65.33,4,4,0,0,1,1.07.72l-1.06,1.57a2.49,2.49,0,0,0-.68-.57,2,2,0,0,0-1-.21,1.64,1.64,0,0,0-1,.35,2.7,2.7,0,0,0-.72,1,6,6,0,0,0-.43,1.48,12.13,12.13,0,0,0-.14,1.89,12,12,0,0,0,.13,1.88,5.13,5.13,0,0,0,.43,1.46,2.56,2.56,0,0,0,.76,1,1.83,1.83,0,0,0,1.13.34,2,2,0,0,0,1-.22,2.18,2.18,0,0,0,.7-.58l.93,1.61A3.52,3.52,0,0,1,433.56,65.74Z" transform="translate(-8.79 -8.78)"/><path class="cls-1" d="M442.87,49.38a1.38,1.38,0,0,1-.38,1,1.29,1.29,0,0,1-1.85,0,1.41,1.41,0,0,1-.36-1,1.44,1.44,0,0,1,.36-1,1.25,1.25,0,0,1,.93-.4,1.22,1.22,0,0,1,.93.4A1.41,1.41,0,0,1,442.87,49.38Zm-2.35,15.94V53h2.08V65.32Z" transform="translate(-8.79 -8.78)"/><path class="cls-1" d="M456.73,59.2a11,11,0,0,1-.3,2.67,6.92,6.92,0,0,1-.88,2.06,4.35,4.35,0,0,1-1.41,1.33,3.74,3.74,0,0,1-1.89.48,3.68,3.68,0,0,1-1.86-.48A4.35,4.35,0,0,1,449,63.93a6.67,6.67,0,0,1-.88-2.06,11,11,0,0,1-.31-2.67,11.37,11.37,0,0,1,.31-2.7,6.58,6.58,0,0,1,.87-2.08,4.13,4.13,0,0,1,1.4-1.33,3.68,3.68,0,0,1,1.88-.48,3.74,3.74,0,0,1,1.89.48,4.35,4.35,0,0,1,1.41,1.33,6.83,6.83,0,0,1,.88,2.08A11.39,11.39,0,0,1,456.73,59.2Zm-2.15,0a12.16,12.16,0,0,0-.14-1.87,5.81,5.81,0,0,0-.42-1.5,2.82,2.82,0,0,0-.74-1,1.58,1.58,0,0,0-1-.36,1.6,1.6,0,0,0-1,.36,2.79,2.79,0,0,0-.72,1,5.81,5.81,0,0,0-.42,1.5,12.2,12.2,0,0,0-.13,1.87,11.94,11.94,0,0,0,.13,1.85,5.84,5.84,0,0,0,.42,1.49,2.79,2.79,0,0,0,.72,1,1.6,1.6,0,0,0,1,.36,1.64,1.64,0,0,0,1.06-.36,2.79,2.79,0,0,0,.72-1,5.85,5.85,0,0,0,.41-1.49A11.89,11.89,0,0,0,454.58,59.19Z" transform="translate(-8.79 -8.78)"/><path class="cls-1" d="M468.15,65.32V57.47c0-.35,0-.7,0-1.06a3.28,3.28,0,0,0-.23-1,1.75,1.75,0,0,0-.53-.71,1.47,1.47,0,0,0-.93-.27,1.76,1.76,0,0,0-1,.28,2.7,2.7,0,0,0-.76.78,4,4,0,0,0-.48,1.21,6.12,6.12,0,0,0-.18,1.53v7.07H462V56.14c0-.49,0-1,0-1.58s0-1.08-.08-1.53h2c.05.4.08.81.11,1.22s0,.71,0,.91h0a4.15,4.15,0,0,1,1.14-1.82,2.76,2.76,0,0,1,1.95-.73,2.8,2.8,0,0,1,1.6.42,2.63,2.63,0,0,1,1,1.1,5.24,5.24,0,0,1,.45,1.57,13.08,13.08,0,0,1,.13,1.78v7.84Z" transform="translate(-8.79 -8.78)"/><path class="cls-1" d="M481.3,65.32c-.06-.37-.11-.75-.15-1.12s0-.68,0-.91h-.05a3.38,3.38,0,0,1-1,1.73,2.82,2.82,0,0,1-1.92.62,2.88,2.88,0,0,1-1.06-.2,2.51,2.51,0,0,1-1-.63,3.36,3.36,0,0,1-.71-1.13,5.11,5.11,0,0,1,.19-3.86,3.84,3.84,0,0,1,1.2-1.32,4.48,4.48,0,0,1,1.61-.65,9.14,9.14,0,0,1,1.69-.17h.8v-.54a3.19,3.19,0,0,0-.55-2.09,1.81,1.81,0,0,0-1.48-.65,2.44,2.44,0,0,0-1.27.34,3.36,3.36,0,0,0-1,.91l-1.05-1.3a4.11,4.11,0,0,1,1.59-1.29,4.61,4.61,0,0,1,1.94-.45,4.08,4.08,0,0,1,1.77.34A2.93,2.93,0,0,1,482,54a4.37,4.37,0,0,1,.62,1.63,12,12,0,0,1,.18,2.19v5c0,.42,0,.89.05,1.38s.08.9.13,1.19Zm-.32-6h-.9a6.4,6.4,0,0,0-1.09.1,2.56,2.56,0,0,0-.95.38,2.1,2.1,0,0,0-.67.77,2.7,2.7,0,0,0-.26,1.25,2.39,2.39,0,0,0,.49,1.65,1.51,1.51,0,0,0,1.13.53,1.55,1.55,0,0,0,1.06-.38,2.72,2.72,0,0,0,.7-1,4.76,4.76,0,0,0,.38-1.28A7.89,7.89,0,0,0,481,60Z" transform="translate(-8.79 -8.78)"/><path class="cls-1" d="M488.45,65.32V46.8h2.11V65.32Z" transform="translate(-8.79 -8.78)"/><path class="cls-1" d="M497.83,59.71a8.47,8.47,0,0,0,.16,1.65,4.72,4.72,0,0,0,.47,1.33,2.41,2.41,0,0,0,.77.89,1.88,1.88,0,0,0,1.08.32,1.76,1.76,0,0,0,1.32-.51,3.8,3.8,0,0,0,.78-1.23l1.57.91A4.81,4.81,0,0,1,502.57,65a3.57,3.57,0,0,1-2.34.75,3.81,3.81,0,0,1-3.3-1.73,8.32,8.32,0,0,1-1.2-4.81,10.15,10.15,0,0,1,.32-2.68,6.77,6.77,0,0,1,.9-2.09,4.41,4.41,0,0,1,1.42-1.34,3.64,3.64,0,0,1,1.84-.48,3.59,3.59,0,0,1,1.91.48,3.91,3.91,0,0,1,1.29,1.3,6,6,0,0,1,.72,1.93,12.06,12.06,0,0,1,.22,2.39v1ZM502.24,58a5.66,5.66,0,0,0-.5-2.59,1.66,1.66,0,0,0-1.58-1,1.54,1.54,0,0,0-1.06.37,3,3,0,0,0-.7.93,4.47,4.47,0,0,0-.39,1.17,5.18,5.18,0,0,0-.13,1.1Z" transform="translate(-8.79 -8.78)"/><path class="cls-1" d="M514.32,55.35a2.75,2.75,0,0,0-.82-.77,2.29,2.29,0,0,0-1.19-.3,1.53,1.53,0,0,0-1.18.5,1.92,1.92,0,0,0-.46,1.36,1.52,1.52,0,0,0,.48,1.25,5.29,5.29,0,0,0,1.45.76,7.83,7.83,0,0,1,1,.47,3.7,3.7,0,0,1,.91.73,3.53,3.53,0,0,1,.65,1,3.82,3.82,0,0,1,.24,1.43,4.64,4.64,0,0,1-.28,1.69,3.26,3.26,0,0,1-.79,1.22,3.31,3.31,0,0,1-1.18.75,4.3,4.3,0,0,1-1.5.26,4.39,4.39,0,0,1-3.52-1.67l1.22-1.34a4.39,4.39,0,0,0,1,.89,2.48,2.48,0,0,0,1.4.38,1.5,1.5,0,0,0,1.23-.56,2.25,2.25,0,0,0,.46-1.47,2.17,2.17,0,0,0-.17-.89,1.92,1.92,0,0,0-.47-.62,2.88,2.88,0,0,0-.7-.44l-.87-.36a7.41,7.41,0,0,1-.92-.41,3.35,3.35,0,0,1-.82-.65,3.07,3.07,0,0,1-.58-1,3.85,3.85,0,0,1-.23-1.41,3.67,3.67,0,0,1,.29-1.47,3.33,3.33,0,0,1,.77-1.14,3.27,3.27,0,0,1,1.15-.73,3.9,3.9,0,0,1,1.42-.26,4.44,4.44,0,0,1,1.9.38,3.75,3.75,0,0,1,1.31,1Z" transform="translate(-8.79 -8.78)"/></svg>